<?xml version="1.0" encoding="UTF-8"?>
<svg xmlns="http://www.w3.org/2000/svg" xmlns:xlink="http://www.w3.org/1999/xlink" width="160pt" height="120pt" viewBox="0 0 160 120" version="1.1">
<g id="surface1">
<path style=" stroke:none;fill-rule:nonzero;fill:rgb(0%,0%,0%);fill-opacity:1;" d="M 107.480469 30.101562 C 107.339844 30.480469 107.199219 31 107.199219 31.28125 C 107.199219 31.800781 106.878906 33.199219 105 41 C 103.558594 46.941406 102.160156 52.320312 101.5 54.539062 C 100.941406 56.359375 101.039062 56.28125 98.800781 56.601562 C 95.78125 57.039062 93.378906 56.179688 92.261719 54.261719 C 91.761719 53.398438 91.699219 53.121094 91.71875 51.601562 C 91.71875 50.300781 91.839844 49.640625 92.199219 48.800781 C 92.761719 47.460938 92.800781 45.640625 92.300781 44.878906 C 91.980469 44.398438 91.941406 44.378906 91.601562 44.699219 C 90.761719 45.460938 90 48.839844 90 51.78125 C 90 55.300781 91 58.121094 92.679688 59.5 C 93.839844 60.441406 95.640625 61 97.5 61 C 98.980469 61 99.019531 61.019531 98.898438 61.441406 C 98.660156 62.261719 96.960938 65.140625 96.058594 66.28125 C 93.421875 69.679688 90.320312 69.800781 88.679688 66.578125 C 87.878906 64.960938 87.160156 65.480469 87.140625 67.679688 C 87.121094 69.558594 88.261719 71.539062 89.960938 72.621094 C 92.898438 74.480469 96.441406 71.980469 99.441406 65.898438 C 99.941406 64.898438 100.640625 63.339844 101 62.398438 C 101.359375 61.460938 101.738281 60.621094 101.839844 60.5 C 102.160156 60.140625 106.839844 58.640625 106.898438 58.878906 C 106.941406 59 107.019531 60.621094 107.078125 62.5 C 107.160156 64.359375 107.339844 67.199219 107.519531 68.78125 C 107.898438 72.539062 108.398438 73.78125 109.101562 72.71875 C 109.480469 72.140625 109.519531 70.859375 109.21875 68.699219 C 108.980469 66.941406 108.601562 61.199219 108.601562 59.300781 L 108.601562 58.078125 L 109.941406 57.640625 C 110.679688 57.398438 111.300781 57.238281 111.339844 57.261719 C 111.359375 57.300781 111.238281 58 111.058594 58.820312 C 110.800781 59.941406 110.71875 61.320312 110.71875 64.601562 C 110.699219 69.160156 110.820312 69.980469 111.660156 71.21875 C 112.441406 72.378906 113.398438 72.160156 114.179688 70.640625 L 114.519531 69.980469 L 114.878906 70.800781 C 116.140625 73.679688 118.160156 71.679688 118.539062 67.160156 L 118.660156 65.640625 L 119.140625 66.199219 C 119.398438 66.519531 119.78125 66.820312 119.960938 66.878906 C 120.21875 66.960938 120.378906 67.378906 120.539062 68.5 C 121.101562 71.980469 122.679688 73.019531 123.820312 70.660156 L 124.261719 69.71875 L 124.539062 70.5 C 124.898438 71.539062 125.359375 72 126.019531 72 C 127.101562 72 128.121094 69.71875 129.078125 65.261719 L 129.558594 63.101562 L 129.519531 67 C 129.5 70.441406 129.539062 70.980469 129.859375 71.460938 C 130.679688 72.71875 131.359375 71.738281 131.980469 68.441406 C 132.21875 67.160156 132.660156 65.101562 132.960938 63.898438 L 133.5 61.699219 L 133.621094 65.601562 C 133.761719 69.601562 133.980469 70.800781 134.738281 71.640625 C 135.960938 73 137.339844 70.800781 138.5 65.699219 C 139.21875 62.5 139.058594 60.398438 138.078125 60.398438 C 137.800781 60.398438 137.660156 60.820312 136.738281 64.679688 C 136.21875 66.78125 135.71875 67.980469 135.441406 67.699219 C 135.359375 67.621094 135.261719 65.578125 135.179688 63.140625 C 135.101562 59.519531 135.019531 58.539062 134.71875 57.859375 C 134.300781 56.878906 133.921875 56.679688 133.28125 57.078125 C 132.78125 57.421875 132.261719 58.699219 131.679688 61 L 131.300781 62.5 L 131.179688 59.800781 C 131.039062 56.261719 130.5 54.898438 129.578125 55.71875 C 129.078125 56.179688 128.519531 58.078125 127.980469 61.101562 C 127.121094 66.160156 126.28125 68.519531 125.699219 67.601562 C 125.621094 67.480469 125.441406 66.101562 125.300781 64.558594 C 125.058594 62.121094 125.058594 61.679688 125.320312 61.320312 C 125.660156 60.839844 125.699219 58.878906 125.378906 58.058594 C 125.058594 57.199219 124.199219 56.398438 123.578125 56.398438 C 122.519531 56.398438 121.558594 57.980469 120.699219 61.238281 C 120.5 62 120.238281 62.601562 120.101562 62.601562 C 119.960938 62.601562 119.699219 62.238281 119.519531 61.800781 C 119.238281 61.101562 119.058594 60.199219 118.5 56.679688 C 118.441406 56.339844 118.261719 55.898438 118.101562 55.679688 C 117.839844 55.320312 117.820312 55.320312 117.460938 55.660156 C 117.140625 55.980469 117.101562 56.460938 117.078125 61.058594 C 117.058594 66.199219 116.878906 67.800781 116.300781 67.800781 C 116.140625 67.800781 115.960938 67.679688 115.859375 67.539062 C 115.78125 67.421875 115.660156 65.140625 115.601562 62.480469 C 115.5 57.539062 115.398438 57 114.679688 57 C 114.160156 57 114 57.980469 113.820312 62.058594 C 113.699219 64.878906 113.558594 66.320312 113.339844 66.820312 C 112.960938 67.761719 112.679688 67.921875 112.378906 67.359375 C 112.078125 66.78125 112.261719 62.261719 112.679688 60.160156 C 113.078125 58.160156 112.78125 56.398438 112.039062 56.398438 C 111.839844 56.398438 111.800781 56.261719 111.878906 55.878906 C 112.058594 55.21875 111.839844 53.71875 111.5 53.261719 C 111.261719 52.941406 111.179688 52.941406 110.019531 53.261719 C 109.359375 53.441406 108.71875 53.601562 108.601562 53.601562 C 108.339844 53.601562 108.359375 43.878906 108.640625 37.5 C 108.941406 30.441406 108.941406 30.300781 108.519531 29.820312 C 108 29.238281 107.820312 29.300781 107.480469 30.101562 Z M 108.441406 31.539062 C 108.441406 31.839844 108.339844 33.441406 108.21875 35.101562 C 107.980469 38.679688 107.921875 55 108.160156 55 C 108.238281 55 108.878906 54.820312 109.558594 54.578125 C 111.160156 54.039062 111.441406 54.140625 111.359375 55.21875 L 111.300781 56.039062 L 109.679688 56.539062 L 108.058594 57.058594 L 108.140625 59.28125 C 108.28125 63 108.578125 67.398438 108.839844 69.421875 C 109.058594 71.28125 109 72.140625 108.621094 71.921875 C 108.199219 71.660156 107.71875 66.980469 107.480469 60.941406 C 107.378906 58.578125 107.261719 57.398438 107.121094 57.421875 C 107 57.421875 105.699219 57.839844 104.21875 58.359375 L 101.558594 59.300781 L 100.601562 61.699219 C 99.421875 64.71875 98.820312 65.878906 97.480469 67.921875 C 95.058594 71.578125 92.421875 72.859375 90.101562 71.5 C 88.761719 70.71875 87.601562 68.980469 87.601562 67.71875 C 87.601562 66.800781 87.898438 66.640625 88.300781 67.398438 C 88.761719 68.28125 89.78125 69.378906 90.460938 69.738281 C 91.300781 70.160156 92.761719 70.121094 93.71875 69.640625 C 94.578125 69.199219 96.179688 67.578125 97.140625 66.199219 C 97.839844 65.160156 99.160156 62.601562 99.839844 60.878906 L 100.339844 59.699219 L 97.71875 59.699219 C 94.679688 59.699219 93.878906 59.441406 92.441406 57.960938 C 90.359375 55.859375 89.820312 51.28125 91.140625 47.101562 C 91.539062 45.839844 91.800781 45.480469 92.019531 45.839844 C 92.300781 46.28125 92.21875 46.921875 91.679688 48.539062 C 91.21875 49.898438 91.160156 50.359375 91.238281 52 C 91.300781 53.640625 91.398438 54.039062 91.898438 55 C 92.578125 56.238281 93.839844 57.28125 95.058594 57.621094 C 96.160156 57.921875 98.679688 57.898438 100.078125 57.578125 L 101.199219 57.339844 L 101.800781 55.421875 C 102.859375 52.058594 107.601562 32.839844 107.601562 31.941406 C 107.601562 31.761719 107.699219 31.378906 107.800781 31.078125 C 108.058594 30.398438 108.460938 30.699219 108.441406 31.539062 Z M 118.101562 57.238281 C 118.160156 57.601562 118.300781 58.519531 118.398438 59.300781 C 118.800781 61.941406 119.5 63.800781 120.121094 63.800781 C 120.480469 63.800781 120.660156 63.421875 121.28125 61.199219 C 122.078125 58.398438 123.078125 57.121094 124.058594 57.640625 C 124.660156 57.960938 125.21875 59.039062 125.160156 59.78125 C 125.101562 60.558594 124.699219 60.820312 124.5 60.21875 C 124.179688 59.199219 123.078125 59.300781 122.5 60.398438 C 121.378906 62.539062 121.28125 68.339844 122.339844 68.738281 C 123 69 123.660156 67.28125 123.980469 64.441406 C 124.078125 63.519531 124.21875 62.71875 124.300781 62.640625 C 124.539062 62.398438 124.800781 63.101562 124.800781 64.039062 C 124.800781 65.558594 125.199219 68.058594 125.519531 68.558594 C 126.421875 69.941406 127.261719 67.699219 128.660156 60.378906 C 129.179688 57.660156 129.539062 56.699219 130 56.699219 C 130.640625 56.699219 130.839844 58.460938 130.738281 63.160156 C 130.699219 65.601562 130.679688 67.578125 130.71875 67.539062 C 130.761719 67.5 130.980469 66.621094 131.179688 65.558594 C 132.261719 60.378906 133.101562 57.921875 133.761719 58.039062 C 134.519531 58.179688 134.699219 59.101562 134.800781 63.839844 C 134.878906 67.140625 134.960938 68.460938 135.160156 68.640625 C 135.839844 69.320312 136.640625 67.699219 137.480469 64.019531 C 138 61.699219 138.101562 61.421875 138.359375 61.679688 C 138.859375 62.179688 137.660156 67.78125 136.660156 69.640625 C 136.21875 70.460938 135.980469 70.71875 135.558594 70.761719 C 135 70.820312 134.738281 70.539062 134.359375 69.320312 C 134.238281 68.980469 134.101562 66.761719 134.019531 64.398438 C 133.960938 61.839844 133.820312 60.101562 133.699219 60.101562 C 133.378906 60.101562 132.859375 61.761719 132.179688 64.921875 C 131.058594 70.21875 130.921875 70.699219 130.578125 70.761719 C 130.398438 70.800781 130.179688 70.660156 130.101562 70.460938 C 130.039062 70.261719 129.980469 67.539062 129.980469 64.398438 C 129.980469 60.71875 129.921875 58.859375 129.800781 59.140625 C 129.699219 59.398438 129.339844 61.058594 129.019531 62.859375 C 128.160156 67.480469 127.398438 69.800781 126.441406 70.660156 C 125.679688 71.359375 124.878906 70.378906 124.480469 68.300781 L 124.339844 67.539062 L 123.878906 68.800781 C 123.300781 70.441406 122.800781 70.960938 122.121094 70.640625 C 121.519531 70.378906 121.058594 69.039062 120.878906 67.039062 C 120.761719 65.738281 120.699219 65.601562 120.359375 65.71875 C 119.839844 65.878906 119.421875 65.480469 118.878906 64.320312 C 118.320312 63.121094 118.261719 63.261719 118.121094 65.898438 C 118 68.238281 117.378906 70.480469 116.78125 70.800781 C 115.898438 71.28125 115.28125 70.601562 114.78125 68.621094 L 114.558594 67.71875 L 114.21875 68.738281 C 113.699219 70.300781 113.28125 70.839844 112.640625 70.761719 C 111.621094 70.640625 111 68.519531 111 65.039062 C 111 61.738281 111.601562 57.800781 112.101562 57.738281 C 112.441406 57.679688 112.441406 58.761719 112.101562 60.699219 C 111.679688 63 111.738281 67.941406 112.179688 68.460938 C 112.839844 69.28125 113.519531 68.558594 113.980469 66.601562 C 114.101562 66.101562 114.261719 64.058594 114.320312 62.039062 C 114.460938 58.699219 114.578125 57.921875 114.960938 58.300781 C 115.039062 58.378906 115.078125 59.980469 115.039062 61.859375 C 114.960938 66.539062 115.378906 69 116.300781 69 C 117.199219 69 117.699219 65.761719 117.558594 60.699219 C 117.5 58.71875 117.480469 56.980469 117.539062 56.839844 C 117.699219 56.398438 117.980469 56.601562 118.101562 57.238281 Z M 124.039062 60.941406 C 124.359375 61.21875 124.378906 61.300781 124.101562 61.601562 C 123.921875 61.78125 123.679688 62.839844 123.519531 64.160156 C 123.21875 66.398438 122.898438 67.398438 122.460938 67.539062 C 121.898438 67.71875 121.878906 64.441406 122.421875 62.320312 C 122.621094 61.519531 123.21875 60.601562 123.539062 60.601562 C 123.621094 60.601562 123.839844 60.738281 124.039062 60.941406 Z M 124.039062 60.941406 "/>
<path style=" stroke:none;fill-rule:nonzero;fill:rgb(0%,0%,0%);fill-opacity:1;" d="M 105.800781 43.539062 C 105 46.820312 103.898438 51.140625 103.359375 53.160156 C 102.800781 55.179688 102.398438 56.859375 102.441406 56.898438 C 102.480469 56.941406 103.558594 56.601562 104.859375 56.140625 L 107.199219 55.300781 L 107.261719 46.441406 C 107.28125 41.578125 107.28125 37.601562 107.28125 37.601562 C 107.261719 37.601562 106.601562 40.28125 105.800781 43.539062 Z M 106.800781 48.261719 L 106.800781 54.320312 L 105.160156 54.859375 C 104.261719 55.140625 103.5 55.359375 103.460938 55.339844 C 103.398438 55.28125 106.679688 42.199219 106.761719 42.199219 C 106.78125 42.199219 106.800781 44.921875 106.800781 48.261719 Z M 106.800781 48.261719 "/>
<path style=" stroke:none;fill-rule:nonzero;fill:rgb(0%,0%,0%);fill-opacity:1;" d="M 31.101562 31.480469 C 29.480469 32.179688 27.960938 34.921875 27.160156 38.558594 C 26.519531 41.398438 26.519531 47.320312 27.160156 49.859375 C 27.660156 51.859375 28.121094 52.878906 28.921875 53.660156 C 29.640625 54.378906 30.039062 54.28125 30.359375 53.300781 C 30.761719 52.058594 30.5 50.71875 29.679688 49.898438 C 28.679688 48.898438 28.320312 47.441406 28.339844 44.398438 C 28.359375 41.578125 28.738281 39.460938 29.5 37.859375 C 30.578125 35.679688 32.378906 34.921875 33.480469 36.199219 C 34.921875 37.921875 35.058594 41.320312 34.199219 52.859375 C 33.621094 60.800781 33.519531 63.421875 33.78125 66.28125 C 34.140625 70.378906 34.960938 72.820312 36.261719 73.601562 C 37.160156 74.160156 37.679688 74.101562 38.519531 73.339844 C 39.839844 72.199219 41.039062 69.121094 42.101562 64.300781 L 42.539062 62.300781 L 42.660156 65.199219 C 42.859375 69.578125 43.320312 71.800781 44.320312 73.140625 C 45.320312 74.460938 46.398438 74.160156 47.300781 72.300781 C 47.78125 71.320312 48.199219 71.019531 48.199219 71.640625 C 48.199219 72.058594 49.179688 73.140625 49.78125 73.398438 C 50.300781 73.601562 50.5 73.601562 51.140625 73.261719 C 52.460938 72.558594 53.480469 70.238281 54.519531 65.601562 L 54.980469 63.5 L 54.960938 67.398438 C 54.941406 70.71875 54.980469 71.398438 55.28125 71.941406 C 55.898438 73.179688 56.578125 72.578125 57.101562 70.378906 C 57.261719 69.679688 57.679688 67.699219 58.019531 66 C 58.378906 64.300781 58.738281 62.761719 58.820312 62.601562 C 58.921875 62.441406 58.980469 64.300781 58.980469 66.898438 C 58.960938 71.421875 59.078125 72.480469 59.640625 72.820312 C 60 73.039062 60.339844 72.820312 60.578125 72.238281 C 60.699219 71.941406 61.199219 69.71875 61.699219 67.28125 C 62.179688 64.859375 62.679688 62.660156 62.78125 62.378906 C 62.921875 62.039062 62.980469 62.78125 62.980469 65 C 63 68.421875 63.238281 70.261719 63.800781 71.519531 C 64.480469 73.078125 65.601562 72.820312 66.539062 70.898438 L 67.078125 69.820312 L 67.320312 70.5 C 67.621094 71.398438 68.140625 72.199219 68.519531 72.339844 C 69.078125 72.539062 69.738281 72.039062 70.199219 71.078125 L 70.660156 70.121094 L 70.941406 70.921875 C 71.261719 71.898438 72.039062 72.601562 72.601562 72.460938 C 73.558594 72.199219 74.621094 69.71875 75.480469 65.660156 L 75.941406 63.5 L 75.921875 67.398438 C 75.898438 70.839844 75.941406 71.378906 76.261719 71.859375 C 77.140625 73.21875 77.640625 72.339844 78.601562 67.660156 C 79.039062 65.601562 79.519531 63.5 79.679688 63 C 79.941406 62.140625 79.960938 62.238281 79.980469 65.28125 C 80.019531 70.199219 80.539062 72.199219 81.839844 72.359375 C 82.941406 72.480469 84.101562 69.980469 85 65.601562 C 85.558594 62.878906 85.339844 60.800781 84.5 60.800781 C 84.179688 60.800781 83.941406 61.460938 83.378906 64.101562 C 82.960938 66.101562 82.519531 67.480469 82.140625 67.960938 C 81.71875 68.5 81.601562 67.660156 81.601562 63.960938 C 81.601562 59.878906 81.398438 58.460938 80.71875 57.660156 C 80.339844 57.21875 80.21875 57.179688 79.839844 57.378906 C 79.238281 57.699219 78.878906 58.460938 78.300781 60.621094 C 78.039062 61.621094 77.78125 62.480469 77.738281 62.539062 C 77.679688 62.578125 77.601562 61.460938 77.558594 60.058594 C 77.441406 57.199219 77.101562 56 76.421875 56 C 75.601562 56 75.078125 57.519531 74.101562 62.800781 C 73.5 66.058594 72.839844 68.101562 72.421875 68.101562 C 72.019531 68.101562 71.859375 67.339844 71.640625 64.601562 C 71.480469 62.699219 71.5 62.199219 71.738281 61.71875 C 71.941406 61.320312 72.019531 60.71875 71.960938 59.78125 C 71.898438 58.621094 71.800781 58.300781 71.28125 57.660156 C 70.421875 56.601562 69.660156 56.539062 68.859375 57.480469 C 68.039062 58.398438 67.5 59.878906 66.679688 63.5 C 65.839844 67.179688 65.679688 67.660156 65.199219 68.101562 C 64.839844 68.421875 64.820312 68.398438 64.71875 67.558594 C 64.640625 67.101562 64.621094 65.300781 64.640625 63.601562 C 64.71875 59.140625 64.179688 57.160156 62.980469 57.460938 C 62.320312 57.621094 61.71875 58.738281 61.121094 60.921875 C 60.660156 62.558594 60.621094 62.640625 60.621094 61.820312 C 60.578125 60.21875 60.179688 58.398438 59.71875 57.859375 C 59.320312 57.398438 59.21875 57.378906 58.820312 57.601562 C 58.238281 57.898438 57.539062 59.480469 57.058594 61.5 L 56.699219 63.101562 L 56.578125 60.398438 C 56.421875 57.101562 55.980469 55.78125 55.140625 56.121094 C 54.480469 56.359375 53.859375 58.421875 53.199219 62.601562 C 52.800781 65.140625 52.238281 67.28125 51.699219 68.199219 C 51.441406 68.660156 51.421875 68.539062 51.398438 66.699219 C 51.398438 65.378906 51.21875 63.859375 50.878906 62.199219 C 50.601562 60.820312 50.300781 58.519531 50.21875 57.078125 C 50.058594 54.441406 49.761719 53.300781 49.199219 53.300781 C 48.558594 53.300781 48.300781 54.398438 48.28125 57.300781 C 48.238281 59.898438 47.761719 63.5 46.980469 67 C 46.640625 68.519531 46.078125 69.601562 45.621094 69.601562 C 44.078125 69.601562 44 64.820312 45.121094 41 C 45.378906 35.398438 45.378906 34.160156 45.160156 33.5 C 44.859375 32.558594 44.359375 32.378906 44.039062 33.078125 C 43.921875 33.359375 43.71875 34.960938 43.601562 36.640625 C 42.5 52.800781 40.839844 63.820312 38.898438 67.921875 C 37.859375 70.078125 36.78125 70.28125 35.941406 68.460938 C 35.238281 66.898438 35.238281 61.679688 35.898438 52.699219 C 36.5 44.761719 36.5 39.160156 35.921875 36.578125 C 34.941406 32.28125 33.28125 30.519531 31.101562 31.480469 Z M 33.320312 32.78125 C 35.199219 33.921875 36.179688 38.421875 35.921875 44.601562 C 35.859375 46.300781 35.601562 50.078125 35.359375 53 C 34.800781 59.980469 34.761719 65.921875 35.261719 68.058594 C 36.121094 71.679688 38.140625 71.78125 39.5 68.21875 C 41.199219 63.738281 42.640625 54.878906 43.601562 42.78125 C 43.820312 39.878906 44.078125 36.699219 44.160156 35.71875 C 44.238281 34.699219 44.398438 33.898438 44.519531 33.859375 C 44.898438 33.738281 44.941406 34.378906 44.78125 37.601562 C 44.261719 47.921875 43.941406 56.640625 43.921875 61.699219 C 43.898438 66.699219 43.941406 67.679688 44.261719 68.800781 C 44.78125 70.679688 45.5 71.28125 46.261719 70.441406 C 47.28125 69.300781 48.820312 61.238281 48.78125 57.179688 C 48.78125 55.140625 48.878906 54.398438 49.199219 54.398438 C 49.5 54.398438 49.660156 55.28125 49.640625 56.800781 C 49.621094 57.761719 49.820312 59.320312 50.21875 61.300781 C 51.019531 65.160156 51.160156 67.480469 50.71875 69.179688 C 50.539062 69.878906 50.421875 70.480469 50.441406 70.5 C 50.480469 70.539062 50.699219 70.480469 50.941406 70.378906 C 52 69.980469 52.941406 67.320312 53.699219 62.738281 C 54.238281 59.359375 54.660156 57.761719 55.101562 57.398438 C 55.941406 56.699219 56.261719 58.558594 56.160156 63.941406 C 56.140625 66.28125 56.160156 68.058594 56.238281 67.859375 C 56.320312 67.660156 56.699219 65.921875 57.101562 64 C 58.121094 59.039062 58.960938 57.558594 59.738281 59.339844 C 60 59.921875 60.101562 60.941406 60.160156 63.800781 L 60.261719 67.5 L 60.820312 64.699219 C 61.820312 59.78125 62.5 58.179688 63.359375 58.71875 C 64 59.140625 64.179688 60.199219 64.21875 64.199219 C 64.261719 68.761719 64.320312 69.28125 64.960938 69.359375 C 65.601562 69.460938 66.21875 67.980469 66.980469 64.519531 C 67.859375 60.640625 68.140625 59.761719 68.820312 58.820312 C 69.28125 58.179688 69.539062 58 69.980469 58 C 70.960938 58 71.800781 59.378906 71.519531 60.5 C 71.359375 61.101562 71.078125 61.140625 70.898438 60.601562 C 70.699219 59.960938 70.058594 59.71875 69.5 60.078125 C 68.660156 60.621094 68.160156 62.398438 68.039062 65.101562 C 67.960938 67.699219 68.121094 68.738281 68.679688 69.078125 C 68.960938 69.261719 69.078125 69.21875 69.320312 68.898438 C 69.761719 68.320312 70.160156 66.71875 70.378906 64.839844 C 70.480469 63.921875 70.621094 63.121094 70.699219 63.039062 C 70.960938 62.78125 71.199219 63.519531 71.199219 64.601562 C 71.21875 66.039062 71.539062 68.238281 71.839844 68.898438 C 71.960938 69.199219 72.199219 69.398438 72.378906 69.359375 C 73.140625 69.21875 73.941406 66.621094 75.058594 60.78125 C 75.738281 57.238281 76.261719 56.320312 76.820312 57.640625 C 77.039062 58.140625 77.101562 59.441406 77.078125 63.199219 L 77.058594 68.101562 L 77.441406 66.5 C 78.800781 60.460938 79.339844 58.738281 79.941406 58.519531 C 80.859375 58.160156 81.199219 59.738281 81.199219 64.5 C 81.199219 68.199219 81.339844 69.199219 81.878906 69.199219 C 82.539062 69.199219 83.300781 67.300781 83.960938 63.898438 C 84.160156 62.921875 84.421875 62.101562 84.539062 62.058594 C 84.960938 61.921875 84.980469 62.941406 84.578125 64.898438 C 83.738281 69.078125 82.898438 71.058594 81.941406 71.160156 C 81.460938 71.21875 81.339844 71.121094 80.960938 70.261719 C 80.558594 69.398438 80.5 68.839844 80.421875 64.941406 C 80.339844 62.398438 80.21875 60.578125 80.101562 60.539062 C 79.71875 60.441406 78.960938 63.238281 77.578125 69.960938 C 77.359375 71.039062 76.960938 71.441406 76.539062 71.019531 C 76.398438 70.878906 76.339844 69.058594 76.359375 64.960938 C 76.398438 61.019531 76.339844 59.199219 76.199219 59.421875 C 76.101562 59.601562 75.78125 61 75.519531 62.539062 C 74.660156 67.398438 73.878906 69.960938 72.960938 70.941406 C 72.71875 71.199219 72.398438 71.398438 72.261719 71.398438 C 71.859375 71.398438 71.238281 70.261719 70.960938 69.039062 L 70.71875 67.980469 L 70.28125 69.199219 C 69.78125 70.578125 69.320312 71.199219 68.78125 71.199219 C 68.179688 71.199219 67.78125 70.359375 67.28125 68.101562 C 67.160156 67.539062 67.140625 67.558594 66.78125 68.71875 C 65.839844 71.78125 64.398438 72.261719 63.78125 69.738281 C 63.621094 69.121094 63.5 67.261719 63.5 65.101562 C 63.460938 60.601562 63.460938 60.601562 63.121094 60.601562 C 62.601562 60.601562 62 62.71875 60.898438 68.539062 C 60.398438 71.160156 60.039062 72.101562 59.640625 71.71875 C 59.558594 71.640625 59.460938 69.121094 59.398438 66.160156 C 59.261719 58.660156 58.980469 58.738281 57.320312 66.738281 C 56.820312 69.078125 56.378906 71.078125 56.300781 71.199219 C 56.121094 71.5 55.660156 71.441406 55.519531 71.078125 C 55.460938 70.898438 55.398438 68.179688 55.398438 65.039062 C 55.378906 60.859375 55.320312 59.398438 55.179688 59.660156 C 55.058594 59.878906 54.699219 61.5 54.378906 63.261719 C 53.480469 68.378906 52.660156 70.761719 51.460938 71.800781 C 50.679688 72.5 50.320312 72.539062 49.480469 72.019531 C 49.019531 71.738281 48.71875 71.300781 48.421875 70.5 C 48.179688 69.898438 48 69.28125 47.980469 69.140625 C 47.980469 69 47.761719 69.480469 47.5 70.179688 C 47 71.519531 46.5 72.320312 45.960938 72.679688 C 45.398438 73.019531 44.621094 72.5 44.179688 71.5 C 43.320312 69.558594 43.140625 67.878906 43.140625 61.300781 C 43.140625 56.878906 43.101562 55.441406 42.960938 56.300781 C 42.039062 62.558594 41.101562 66.738281 40 69.558594 C 38.160156 74.320312 35.441406 73.699219 34.5 68.300781 C 34.058594 65.71875 34.121094 60.179688 34.699219 52.5 C 35.558594 40.980469 35.300781 36.800781 33.578125 35.039062 C 33.101562 34.558594 32.78125 34.398438 32.21875 34.398438 C 29.898438 34.398438 28.121094 37.980469 27.859375 43.101562 C 27.679688 46.839844 28.199219 49.558594 29.339844 50.761719 C 29.859375 51.300781 30 51.621094 30 52.21875 C 30 53.199219 29.640625 53.238281 28.921875 52.378906 C 27.660156 50.898438 27.121094 48.339844 27.140625 44.199219 C 27.160156 40.5 27.621094 37.878906 28.660156 35.71875 C 30.058594 32.800781 31.679688 31.78125 33.320312 32.78125 Z M 70.421875 61.320312 C 70.621094 61.558594 70.621094 61.71875 70.441406 62.019531 C 70.300781 62.238281 70.101562 63.160156 70 64.058594 C 69.71875 66.300781 69.421875 67.539062 69.058594 67.820312 C 68.539062 68.261719 68.378906 67.621094 68.460938 65.601562 C 68.558594 63.378906 68.878906 62 69.421875 61.421875 C 69.898438 60.921875 70.058594 60.898438 70.421875 61.320312 Z M 70.421875 61.320312 "/>
<path style=" stroke:none;fill-rule:nonzero;fill:rgb(0%,0%,0%);fill-opacity:1;" d="M 48.738281 64.660156 C 48.441406 66.441406 48.160156 68.078125 48.121094 68.300781 C 48.078125 68.519531 48.101562 68.578125 48.140625 68.441406 C 48.28125 68.058594 48.519531 68.160156 48.761719 68.699219 C 49.078125 69.421875 49.699219 69.339844 49.980469 68.578125 C 50.300781 67.640625 50.238281 65.339844 49.820312 63.339844 C 49.621094 62.378906 49.421875 61.539062 49.359375 61.5 C 49.320312 61.460938 49.039062 62.878906 48.738281 64.660156 Z M 49.699219 65.660156 C 49.859375 67.140625 49.78125 67.839844 49.460938 67.941406 C 49 68.101562 48.859375 67.320312 49.058594 65.839844 C 49.179688 65.058594 49.339844 64.398438 49.421875 64.398438 C 49.5 64.398438 49.621094 64.960938 49.699219 65.660156 Z M 49.699219 65.660156 "/>
</g>
</svg>
