<?xml version="1.0" standalone="no"?>
<!DOCTYPE svg PUBLIC "-//W3C//DTD SVG 20010904//EN"
 "http://www.w3.org/TR/2001/REC-SVG-20010904/DTD/svg10.dtd">
<svg version="1.0" xmlns="http://www.w3.org/2000/svg"
 width="3600.000000pt" height="3600.000000pt" viewBox="0 0 3600.000000 3600.000000"
 preserveAspectRatio="xMidYMid meet">

<g transform="translate(0.000000,3600.000000) scale(0.100000,-0.100000)"
fill="#000000" stroke="none">
<path d="M1339 26854 c-235 -610 -360 -1014 -448 -1459 -101 -507 -141 -945
-141 -1538 0 -675 57 -1268 191 -1979 263 -1397 816 -2969 1538 -4373 l98
-190 22 -205 c125 -1175 558 -2274 1264 -3209 634 -841 1471 -1549 2477 -2094
890 -483 1943 -826 2837 -926 527 -59 1543 -89 2093 -61 1139 57 2038 258
2854 636 815 377 1527 970 2066 1719 310 430 588 956 789 1495 57 151 66 169
109 209 158 147 403 267 614 301 110 18 331 8 431 -20 181 -49 379 -160 524
-294 l72 -66 42 -128 c436 -1322 1188 -2355 2214 -3039 1204 -803 2758 -1147
4930 -1094 581 15 869 43 1308 131 1210 243 2392 766 3362 1489 601 448 1129
982 1539 1556 641 895 1039 1959 1146 3060 14 139 -21 50 380 965 524 1196
779 1834 1011 2530 315 949 485 1728 565 2590 21 232 30 938 15 1178 -38 596
-124 1112 -282 1687 -108 397 -151 545 -158 545 -4 0 -88 -138 -188 -307 -100
-170 -230 -379 -288 -467 -565 -846 -1302 -1525 -2244 -2068 -203 -117 -639
-333 -866 -430 -929 -398 -1937 -670 -3360 -907 -610 -102 -678 -111 -854
-111 -188 0 -431 -11 -901 -39 -179 -11 -415 -25 -525 -31 -1189 -66 -2210
-324 -3140 -795 -565 -286 -1066 -633 -1527 -1061 -65 -60 -191 -176 -280
-259 -90 -82 -278 -263 -418 -401 -263 -259 -369 -346 -600 -496 -361 -233
-724 -392 -1081 -472 -342 -76 -715 -76 -1059 0 -577 128 -1252 521 -1645 955
-221 245 -629 647 -800 789 -903 748 -1971 1317 -3162 1684 -892 275 -1767
422 -2719 455 -252 9 -266 11 -515 59 -1510 295 -2550 590 -3474 984 -1538
656 -2665 1603 -3432 2883 -49 83 -150 258 -223 390 -73 132 -137 244 -141
249 -5 5 -13 -4 -20 -20z m229 -1254 c50 -74 142 -201 205 -282 915 -1190
2178 -2059 3882 -2671 754 -271 1608 -494 2760 -720 l430 -85 225 -6 c986 -29
1928 -193 2840 -496 1473 -488 2751 -1313 3612 -2330 78 -93 117 -129 293
-270 468 -374 977 -635 1490 -764 695 -174 1419 -79 2140 281 402 201 751 448
1017 719 88 89 232 229 321 311 88 81 222 207 296 278 1049 1008 2246 1579
3761 1795 328 47 461 58 1110 95 146 8 378 22 515 30 138 8 354 15 482 15
l232 0 348 56 c624 100 1158 199 1610 300 1836 408 3217 1029 4293 1931 415
349 851 817 1135 1221 28 39 53 71 56 72 7 0 6 8 53 -270 37 -221 68 -480 87
-735 15 -204 16 -791 0 -1000 -96 -1332 -441 -2567 -1241 -4440 -73 -170 -261
-602 -417 -960 l-286 -650 -13 -140 c-196 -2051 -1343 -3744 -3289 -4857 -873
-499 -1904 -849 -2845 -967 -259 -32 -414 -41 -875 -47 -587 -9 -1132 12
-1610 62 -1601 165 -2793 669 -3669 1550 -567 570 -1001 1308 -1298 2209 l-70
210 -86 88 c-253 258 -551 431 -862 501 -192 43 -437 45 -630 6 -315 -64 -569
-200 -857 -457 -74 -67 -83 -79 -104 -141 -31 -94 -128 -348 -179 -467 -433
-1017 -1042 -1782 -1845 -2319 -746 -499 -1673 -803 -2785 -915 -401 -41 -539
-46 -1170 -46 -627 1 -966 14 -1330 51 -435 44 -915 152 -1415 318 -1505 499
-2796 1390 -3643 2514 -665 882 -1058 1896 -1177 3034 -8 81 -15 164 -15 185
0 28 -46 129 -193 422 -465 930 -813 1799 -1097 2736 -591 1955 -695 3688
-309 5159 6 21 14 35 18 30 4 -5 49 -70 99 -144z"/>
<path d="M8897 18210 c-824 -44 -1563 -279 -2054 -651 -116 -89 -245 -225
-301 -320 -37 -61 -43 -78 -38 -108 18 -114 115 -327 221 -486 234 -350 637
-734 1060 -1007 1386 -897 3261 -1041 4575 -351 155 81 254 143 398 251 223
166 384 341 474 517 l51 100 -23 65 c-69 196 -211 400 -430 619 -744 742
-1938 1250 -3190 1355 -231 20 -548 26 -743 16z m578 -480 c1208 -79 2332
-537 3024 -1231 106 -107 251 -288 251 -315 0 -22 -156 -172 -263 -253 -649
-487 -1585 -692 -2582 -565 -570 73 -1134 256 -1620 527 -143 79 -392 247
-531 358 -261 207 -569 544 -688 754 l-46 79 28 29 c44 48 176 142 283 203
547 310 1354 466 2144 414z"/>
<path d="M26015 17869 c-1272 -96 -2475 -602 -3195 -1345 -142 -146 -236 -270
-294 -389 -76 -154 -75 -146 -24 -255 219 -463 879 -921 1649 -1144 578 -167
1222 -210 1884 -126 1056 134 2028 589 2695 1260 266 267 440 522 519 760 l28
85 -32 65 c-189 377 -800 752 -1545 949 -251 66 -568 118 -859 141 -155 12
-664 11 -826 -1z m895 -484 c621 -63 1191 -245 1583 -505 103 -68 257 -193
257 -209 0 -18 -119 -189 -195 -281 -322 -389 -833 -755 -1381 -988 -425 -181
-883 -293 -1409 -343 -167 -16 -614 -16 -770 0 -700 72 -1296 298 -1751 665
-90 72 -254 241 -254 261 0 50 254 315 440 459 715 553 1657 887 2702 956 181
12 590 4 778 -15z"/>
</g>
</svg>
