<?xml version="1.0" encoding="UTF-8"?>
<svg xmlns="http://www.w3.org/2000/svg" xmlns:xlink="http://www.w3.org/1999/xlink" width="40pt" height="40pt" viewBox="0 0 40 40" version="1.1">
<g id="surface1">
<path style=" stroke:none;fill-rule:nonzero;fill:rgb(0%,0%,0%);fill-opacity:1;" d="M 1.488281 10.164062 C 1.226562 10.839844 1.085938 11.289062 0.988281 11.785156 C 0.878906 12.347656 0.832031 12.832031 0.832031 13.492188 C 0.832031 14.242188 0.898438 14.902344 1.046875 15.691406 C 1.335938 17.242188 1.953125 18.988281 2.753906 20.550781 L 2.863281 20.761719 L 2.886719 20.988281 C 3.027344 22.292969 3.507812 23.515625 4.292969 24.554688 C 4.996094 25.488281 5.925781 26.277344 7.042969 26.882812 C 8.035156 27.417969 9.203125 27.800781 10.195312 27.910156 C 10.78125 27.976562 11.910156 28.007812 12.523438 27.976562 C 13.789062 27.914062 14.785156 27.691406 15.691406 27.269531 C 16.597656 26.851562 17.390625 26.191406 17.988281 25.359375 C 18.332031 24.882812 18.640625 24.300781 18.867188 23.699219 C 18.929688 23.53125 18.9375 23.511719 18.988281 23.46875 C 19.164062 23.304688 19.433594 23.171875 19.667969 23.132812 C 19.792969 23.113281 20.035156 23.125 20.148438 23.15625 C 20.347656 23.210938 20.570312 23.332031 20.730469 23.480469 L 20.808594 23.554688 L 20.855469 23.699219 C 21.339844 25.167969 22.175781 26.3125 23.316406 27.074219 C 24.65625 27.964844 26.382812 28.347656 28.792969 28.289062 C 29.441406 28.273438 29.761719 28.242188 30.246094 28.144531 C 31.59375 27.875 32.90625 27.292969 33.984375 26.488281 C 34.652344 25.992188 35.238281 25.398438 35.691406 24.761719 C 36.40625 23.765625 36.847656 22.585938 36.964844 21.359375 C 36.980469 21.207031 36.941406 21.304688 37.390625 20.289062 C 37.972656 18.960938 38.253906 18.25 38.511719 17.476562 C 38.863281 16.421875 39.050781 15.558594 39.140625 14.601562 C 39.164062 14.34375 39.171875 13.558594 39.15625 13.292969 C 39.113281 12.628906 39.019531 12.054688 38.84375 11.417969 C 38.722656 10.976562 38.675781 10.8125 38.667969 10.8125 C 38.664062 10.8125 38.570312 10.964844 38.457031 11.152344 C 38.347656 11.339844 38.203125 11.574219 38.140625 11.671875 C 37.511719 12.609375 36.691406 13.367188 35.644531 13.96875 C 35.421875 14.097656 34.9375 14.339844 34.683594 14.445312 C 33.652344 14.890625 32.53125 15.191406 30.949219 15.453125 C 30.273438 15.566406 30.195312 15.578125 30 15.578125 C 29.792969 15.578125 29.523438 15.589844 29 15.621094 C 28.800781 15.632812 28.539062 15.648438 28.417969 15.65625 C 27.09375 15.730469 25.960938 16.015625 24.929688 16.539062 C 24.300781 16.855469 23.742188 17.242188 23.230469 17.71875 C 23.160156 17.785156 23.019531 17.914062 22.921875 18.003906 C 22.820312 18.097656 22.609375 18.296875 22.457031 18.449219 C 22.164062 18.738281 22.046875 18.835938 21.789062 19.003906 C 21.386719 19.261719 20.984375 19.4375 20.585938 19.527344 C 20.207031 19.609375 19.792969 19.609375 19.410156 19.527344 C 18.769531 19.382812 18.019531 18.949219 17.582031 18.464844 C 17.335938 18.191406 16.882812 17.746094 16.695312 17.589844 C 15.691406 16.757812 14.503906 16.125 13.179688 15.71875 C 12.191406 15.414062 11.21875 15.25 10.160156 15.210938 C 9.878906 15.203125 9.863281 15.199219 9.585938 15.148438 C 7.910156 14.820312 6.753906 14.492188 5.726562 14.054688 C 4.019531 13.324219 2.765625 12.273438 1.914062 10.851562 C 1.859375 10.757812 1.746094 10.5625 1.667969 10.417969 C 1.585938 10.269531 1.515625 10.144531 1.511719 10.140625 C 1.503906 10.132812 1.496094 10.144531 1.488281 10.164062 Z M 1.742188 11.554688 C 1.796875 11.636719 1.898438 11.777344 1.96875 11.867188 C 2.988281 13.191406 4.390625 14.15625 6.285156 14.835938 C 7.121094 15.136719 8.070312 15.386719 9.351562 15.636719 L 9.828125 15.730469 L 10.078125 15.738281 C 11.171875 15.769531 12.21875 15.953125 13.234375 16.289062 C 14.871094 16.832031 16.289062 17.746094 17.246094 18.878906 C 17.332031 18.980469 17.375 19.019531 17.570312 19.179688 C 18.09375 19.59375 18.65625 19.882812 19.226562 20.027344 C 20 20.21875 20.804688 20.113281 21.605469 19.714844 C 22.050781 19.492188 22.441406 19.214844 22.734375 18.914062 C 22.832031 18.816406 22.992188 18.660156 23.09375 18.570312 C 23.191406 18.480469 23.339844 18.339844 23.421875 18.261719 C 24.585938 17.140625 25.917969 16.507812 27.601562 16.265625 C 27.964844 16.214844 28.113281 16.203125 28.832031 16.160156 C 28.996094 16.152344 29.253906 16.136719 29.40625 16.128906 C 29.558594 16.117188 29.800781 16.109375 29.941406 16.109375 L 30.199219 16.109375 L 30.585938 16.050781 C 31.277344 15.9375 31.871094 15.828125 32.375 15.714844 C 34.414062 15.261719 35.949219 14.570312 37.144531 13.570312 C 37.605469 13.183594 38.089844 12.664062 38.40625 12.214844 C 38.4375 12.171875 38.464844 12.132812 38.46875 12.132812 C 38.476562 12.132812 38.472656 12.125 38.527344 12.433594 C 38.566406 12.679688 38.601562 12.964844 38.625 13.25 C 38.640625 13.476562 38.640625 14.128906 38.625 14.359375 C 38.515625 15.839844 38.132812 17.214844 37.246094 19.292969 C 37.164062 19.484375 36.953125 19.964844 36.78125 20.359375 L 36.464844 21.082031 L 36.449219 21.238281 C 36.230469 23.519531 34.957031 25.398438 32.792969 26.636719 C 31.824219 27.191406 30.679688 27.578125 29.632812 27.710938 C 29.34375 27.746094 29.171875 27.753906 28.660156 27.761719 C 28.007812 27.773438 27.402344 27.75 26.871094 27.691406 C 25.09375 27.511719 23.769531 26.949219 22.796875 25.972656 C 22.164062 25.335938 21.683594 24.519531 21.351562 23.515625 L 21.277344 23.285156 L 21.179688 23.1875 C 20.898438 22.898438 20.566406 22.707031 20.222656 22.628906 C 20.007812 22.582031 19.738281 22.578125 19.523438 22.621094 C 19.171875 22.691406 18.890625 22.84375 18.570312 23.128906 C 18.488281 23.203125 18.476562 23.21875 18.453125 23.285156 C 18.421875 23.390625 18.3125 23.671875 18.253906 23.804688 C 17.773438 24.9375 17.097656 25.785156 16.207031 26.382812 C 15.375 26.9375 14.347656 27.273438 13.109375 27.398438 C 12.664062 27.445312 12.511719 27.449219 11.8125 27.449219 C 11.113281 27.449219 10.738281 27.433594 10.332031 27.394531 C 9.851562 27.34375 9.316406 27.222656 8.761719 27.039062 C 7.089844 26.484375 5.65625 25.496094 4.714844 24.246094 C 3.972656 23.265625 3.539062 22.140625 3.40625 20.875 C 3.398438 20.785156 3.390625 20.691406 3.390625 20.671875 C 3.390625 20.640625 3.335938 20.527344 3.175781 20.199219 C 2.65625 19.167969 2.269531 18.203125 1.957031 17.160156 C 1.300781 14.988281 1.183594 13.0625 1.613281 11.429688 C 1.617188 11.40625 1.628906 11.390625 1.632812 11.394531 C 1.636719 11.402344 1.6875 11.472656 1.742188 11.554688 Z M 1.742188 11.554688 "/>
<path style=" stroke:none;fill-rule:nonzero;fill:rgb(0%,0%,0%);fill-opacity:1;" d="M 9.886719 19.765625 C 8.96875 19.816406 8.148438 20.078125 7.601562 20.488281 C 7.472656 20.589844 7.332031 20.738281 7.269531 20.84375 C 7.226562 20.914062 7.222656 20.933594 7.226562 20.964844 C 7.246094 21.09375 7.355469 21.328125 7.472656 21.503906 C 7.730469 21.894531 8.179688 22.320312 8.648438 22.625 C 10.191406 23.621094 12.273438 23.78125 13.734375 23.015625 C 13.90625 22.925781 14.015625 22.855469 14.175781 22.734375 C 14.421875 22.550781 14.601562 22.355469 14.703125 22.160156 L 14.757812 22.050781 L 14.734375 21.976562 C 14.65625 21.761719 14.5 21.535156 14.253906 21.289062 C 13.429688 20.464844 12.101562 19.902344 10.710938 19.785156 C 10.453125 19.761719 10.101562 19.753906 9.886719 19.765625 Z M 10.527344 20.300781 C 11.871094 20.386719 13.117188 20.898438 13.886719 21.667969 C 14.003906 21.785156 14.167969 21.988281 14.167969 22.019531 C 14.167969 22.042969 13.992188 22.207031 13.875 22.300781 C 13.152344 22.839844 12.113281 23.066406 11.003906 22.925781 C 10.371094 22.84375 9.746094 22.640625 9.207031 22.339844 C 9.046875 22.253906 8.769531 22.066406 8.617188 21.941406 C 8.324219 21.714844 7.984375 21.339844 7.851562 21.105469 L 7.800781 21.019531 L 7.832031 20.984375 C 7.878906 20.933594 8.027344 20.828125 8.144531 20.761719 C 8.753906 20.414062 9.648438 20.242188 10.527344 20.300781 Z M 10.527344 20.300781 "/>
<path style=" stroke:none;fill-rule:nonzero;fill:rgb(0%,0%,0%);fill-opacity:1;" d="M 28.90625 20.144531 C 27.492188 20.253906 26.15625 20.8125 25.355469 21.640625 C 25.199219 21.800781 25.09375 21.941406 25.027344 22.070312 C 24.945312 22.242188 24.945312 22.234375 25.003906 22.355469 C 25.246094 22.871094 25.980469 23.378906 26.835938 23.625 C 27.476562 23.8125 28.191406 23.859375 28.929688 23.765625 C 30.101562 23.617188 31.179688 23.113281 31.921875 22.367188 C 32.21875 22.070312 32.410156 21.785156 32.5 21.523438 L 32.53125 21.429688 L 32.496094 21.355469 C 32.285156 20.9375 31.605469 20.519531 30.777344 20.300781 C 30.5 20.226562 30.148438 20.171875 29.824219 20.144531 C 29.652344 20.132812 29.085938 20.132812 28.90625 20.144531 Z M 29.898438 20.683594 C 30.589844 20.753906 31.222656 20.957031 31.660156 21.246094 C 31.773438 21.320312 31.945312 21.457031 31.945312 21.476562 C 31.945312 21.496094 31.8125 21.6875 31.726562 21.789062 C 31.371094 22.222656 30.800781 22.628906 30.191406 22.886719 C 29.722656 23.085938 29.210938 23.210938 28.628906 23.269531 C 28.441406 23.285156 27.945312 23.285156 27.773438 23.269531 C 26.996094 23.1875 26.332031 22.9375 25.828125 22.527344 C 25.726562 22.449219 25.542969 22.261719 25.542969 22.238281 C 25.542969 22.183594 25.828125 21.890625 26.035156 21.730469 C 26.828125 21.113281 27.875 20.742188 29.035156 20.667969 C 29.238281 20.652344 29.691406 20.664062 29.898438 20.683594 Z M 29.898438 20.683594 "/>
</g>
</svg>
